<svg height="485pt" viewBox="0 -16 485.74982 485" width="485pt" xmlns="http://www.w3.org/2000/svg"><path d="m106.703125 4.65625h-7.496094c-13.367187 0-24.871093 9.449219-27.464843 22.5625l-67.589844 341.421875c-.742188 3.75 1.269531 7.5 4.804687 8.953125l83.917969 34.5v-262.785156zm0 0" fill="#e0ebfc"/><path d="m10.234375 337.914062-6.085937 30.726563c-.742188 3.75 1.269531 7.5 4.808593 8.953125l83.917969 34.5v-37.089844zm0 0" fill="#a4c9ff"/><path d="m379.042969 4.933594h7.496093c13.367188 0 24.871094 9.453125 27.46875 22.5625l67.589844 341.421875c.738282 3.75-1.273437 7.5-4.808594 8.953125l-83.914062 34.503906v-262.789062zm0 0" fill="#e0ebfc"/><path d="m475.515625 337.914062 6.082031 30.726563c.742188 3.75-1.269531 7.5-4.804687 8.953125l-83.917969 34.5v-37.089844zm0 0" fill="#a4c9ff"/><path d="m179.042969 4.375h127.660156l-63.828125 110.34375zm0 0" fill="#e0ebfc"/><path d="m179.042969 4.375h-11.699219l-22.515625 44.0625c-2.175781 4.257812-.152344 9.460938 4.328125 11.132812l37.472656 13.996094c1.605469.601563 1.761719 2.816406.25 3.632813l-16.253906 8.804687c-4.613281 2.5-5.613281 8.691406-2.019531 12.511719l74.269531 79.015625v-62.8125zm0 0" fill="#e0ebfc"/><path d="m306.703125 4.375h11.703125l22.511719 44.0625c2.175781 4.257812.152343 9.460938-4.324219 11.132812l-37.472656 13.996094c-1.609375.601563-1.761719 2.816406-.253906 3.632813l16.257812 8.804687c4.613281 2.5 5.613281 8.691406 2.019531 12.511719l-74.269531 79.015625v-62.8125zm0 0" fill="#e0ebfc"/><path d="m365.539062 358.660156h-84.664062c-2.210938 0-4-1.789062-4-4v-12.746094c0-2.210937 1.789062-4 4-4h84.664062c2.210938 0 4 1.789063 4 4v12.746094c0 2.207032-1.789062 4-4 4zm0 0" fill="#e0ebfc"/><path d="m210.207031 358.660156h-84.667969c-2.210937 0-4-1.789062-4-4v-12.746094c0-2.210937 1.789063-4 4-4h84.667969c2.207031 0 4 1.789063 4 4v12.746094c0 2.207032-1.792969 4-4 4zm0 0" fill="#e0ebfc"/><path d="m340.875 167.375h-34.171875v42.617188c0 3.433593 1.707031 6.644531 4.550781 8.5625l18.332032 12.378906c1.707031 1.15625 3.722656 1.773437 5.785156 1.773437h5.503906c2.0625 0 4.074219-.617187 5.78125-1.773437l18.332031-12.378906c2.847657-1.921876 4.550781-5.132813 4.550781-8.5625v-42.617188zm0 0" fill="#e0ebfc"/><path d="m179.042969 4.375-72.339844.558594-13.828125 144.652344v291.121093c0 4.417969 3.582031 8 8 8h125.890625c3.605469 0 6.765625-2.414062 7.71875-5.890625l8.3125-30.4375h.078125v-297.660156zm0 0" fill="#e0ebfc"/><path d="m379.042969 4.933594-72.339844-.558594-63.828125 110.34375v297.660156h.074219l8.316406 30.4375c.949219 3.476563 4.109375 5.890625 7.714844 5.890625h125.894531c4.417969 0 8-3.582031 8-8v-291.121093zm0 0" fill="#e0ebfc"/><path d="m36.101562 363.554688c0 4.671874-3.785156 8.457031-8.457031 8.457031-4.667969 0-8.453125-3.785157-8.453125-8.457031 0-4.667969 3.785156-8.457032 8.453125-8.457032 4.671875 0 8.457031 3.789063 8.457031 8.457032zm0 0" fill="#4671c6"/><path d="m468.101562 363.554688c0 4.671874-3.785156 8.457031-8.457031 8.457031-4.667969 0-8.453125-3.785157-8.453125-8.457031 0-4.667969 3.785156-8.457032 8.453125-8.457032 4.671875 0 8.457031 3.789063 8.457031 8.457032zm0 0" fill="#4671c6"/><g fill="#3762cc"><path d="m242.875 118.71875c-1.429688 0-2.75-.757812-3.464844-1.996094l-63.828125-110.34375c-.714843-1.238281-.714843-2.761718-.003906-4 .714844-1.238281 2.039063-2 3.464844-2h127.660156c1.429687 0 2.75.761719 3.464844 2 .714843 1.238282.714843 2.761719-.003907 4l-63.828124 110.34375c-.714844 1.234375-2.035157 1.996094-3.460938 1.996094zm-56.894531-110.34375 56.894531 98.355469 56.894531-98.355469zm0 0"/><path d="m392.875 416.375c-.78125 0-1.558594-.230469-2.226562-.675781-1.109376-.742188-1.773438-1.988281-1.773438-3.324219v-262.597656l-13.8125-144.460938c-.105469-1.121094.265625-2.238281 1.023438-3.070312.757812-.835938 1.832031-1.3125 2.960937-1.3125h7.496094c15.230469 0 28.429687 10.847656 31.390625 25.789062l67.585937 341.421875c1.109375 5.605469-1.917969 11.253907-7.207031 13.425781l-83.917969 34.503907c-.488281.203125-1.007812.300781-1.519531.300781zm-9.429688-407.441406 13.410157 140.273437c.011719.125.019531.253907.019531.378907v256.820312l78.394531-32.234375c1.761719-.722656 2.773438-2.605469 2.402344-4.476563l-67.589844-341.417968c-2.214843-11.207032-12.117187-19.339844-23.539062-19.339844h-3.097657zm0 0"/><path d="m92.875 416.097656c-.515625 0-1.03125-.101562-1.523438-.300781l-83.914062-34.5c-5.289062-2.175781-8.320312-7.824219-7.210938-13.429687l67.589844-341.425782c2.960938-14.941406 16.160156-25.785156 31.390625-25.785156h7.496094c1.125 0 2.203125.476562 2.960937 1.308594.757813.835937 1.128907 1.949218 1.023438 3.074218l-13.8125 144.457032v262.601562c0 1.332032-.667969 2.578125-1.773438 3.324219-.667968.445313-1.445312.675781-2.226562.675781zm6.332031-407.441406c-11.421875 0-21.324219 8.132812-23.542969 19.335938l-67.589843 341.425781c-.367188 1.871093.640625 3.75 2.40625 4.476562l78.394531 32.234375v-256.824218c0-.125.003906-.253907.015625-.378907l13.414063-140.269531zm0 0"/><path d="m92.875 416.097656c-.515625 0-1.03125-.101562-1.523438-.300781l-83.914062-34.5c-5.289062-2.175781-8.320312-7.824219-7.210938-13.429687l6.085938-30.726563c.234375-1.195313 1.003906-2.21875 2.085938-2.777344 1.082031-.5625 2.363281-.597656 3.476562-.097656l82.640625 37.09375c1.4375.644531 2.359375 2.070313 2.359375 3.648437v37.089844c0 1.335938-.664062 2.582032-1.773438 3.324219-.667968.445313-1.445312.675781-2.226562.675781zm-79.691406-72.476562-5.109375 25.796875c-.371094 1.871093.640625 3.75 2.402343 4.476562l78.398438 32.234375v-28.535156zm0 0"/><path d="m392.875 416.097656c-.78125 0-1.558594-.230468-2.226562-.675781-1.109376-.746094-1.773438-1.992187-1.773438-3.324219v-37.09375c0-1.574218.921875-3.003906 2.359375-3.648437l82.640625-37.09375c1.113281-.5 2.390625-.460938 3.476562.097656 1.082032.558594 1.851563 1.582031 2.085938 2.777344l6.085938 30.730469c1.109374 5.605468-1.921876 11.253906-7.210938 13.425781l-83.917969 34.503906c-.488281.199219-1.007812.300781-1.519531.300781zm4-38.503906v28.535156l78.394531-32.234375c1.761719-.722656 2.773438-2.605469 2.402344-4.476562l-5.109375-25.796875zm0 0"/><path d="m365.539062 378.660156h-84.664062c-4.414062 0-8-3.589844-8-8v-12.746094c0-4.414062 3.585938-8 8-8h84.664062c4.414063 0 8 3.585938 8 8v12.746094c0 4.410156-3.585937 8-8 8zm-84.664062-20.746094v12.746094h84.671875l-.003906-12.746094zm0 0"/><path d="m210.207031 378.660156h-84.667969c-4.410156 0-8-3.589844-8-8v-12.746094c0-4.414062 3.589844-8 8-8h84.667969c4.410157 0 8 3.585938 8 8v12.746094c0 4.410156-3.585937 8-8 8zm-84.667969-20.746094v12.746094h84.671876l-.003907-12.746094zm0 0"/><path d="m340.875 236.707031h-5.503906c-2.871094 0-5.644532-.851562-8.023438-2.457031l-18.328125-12.378906c-3.957031-2.667969-6.3125-7.113282-6.3125-11.882813v-42.613281c0-2.210938 1.789063-4 4-4h62.835938c2.207031 0 4 1.789062 4 4v42.617188c0 4.769531-2.359375 9.210937-6.3125 11.878906l-18.332031 12.378906c-2.378907 1.605469-5.152344 2.457031-8.023438 2.457031zm-30.171875-65.332031v38.617188c0 2.105468 1.042969 4.070312 2.789063 5.25l18.332031 12.378906c1.054687.710937 2.28125 1.085937 3.546875 1.085937h5.503906c1.265625 0 2.496094-.378906 3.542969-1.085937l18.332031-12.378906c1.746094-1.179688 2.792969-3.144532 2.792969-5.25v-38.617188zm0 0"/><path d="m226.765625 452.707031h-125.890625c-6.617188 0-12-5.382812-12-12v-291.121093c0-.125.003906-.253907.015625-.378907l13.832031-144.652343c.191406-2.039063 1.898438-3.601563 3.949219-3.621094l72.339844-.558594h.03125c1.425781 0 2.75.761719 3.464843 2l63.828126 110.339844c.351562.609375.539062 1.300781.539062 2.003906v297.65625c0 .636719-.152344 1.242188-.414062 1.777344l-8.117188 29.714844c-1.425781 5.203124-6.183594 8.839843-11.578125 8.839843zm-129.890625-302.929687v290.929687c0 2.203125 1.792969 4 4 4h125.890625c1.796875 0 3.382813-1.210937 3.859375-2.949219l8.25-30.199218v-295.765625l-62.128906-107.398438-66.402344.511719zm0 0"/><path d="m384.875 452.707031h-125.894531c-5.394531 0-10.15625-3.636719-11.574219-8.839843l-8.132812-29.78125c-.253907-.519532-.398438-1.097657-.398438-1.710938v-297.65625c0-.703125.183594-1.394531.535156-2l63.832032-110.34375c.71875-1.246094 2.050781-2.050781 3.492187-1.996094l72.339844.558594c2.050781.015625 3.757812 1.578125 3.953125 3.621094l13.828125 144.652344c.011719.125.019531.253906.019531.378906v291.121094c0 6.613281-5.382812 11.996093-12 11.996093zm-138-41.148437 8.25 30.203125c.472656 1.734375 2.058594 2.945312 3.859375 2.945312h125.890625c2.203125 0 4-1.792969 4-4v-290.929687l-13.46875-140.871094-66.40625-.515625-62.125 107.402344zm0 0"/><path d="m242.875 181.53125c-1.085938 0-2.144531-.441406-2.917969-1.261719l-74.265625-79.011719c-2.570312-2.734374-3.703125-6.425781-3.105468-10.128906.601562-3.707031 2.835937-6.855468 6.132812-8.640625l12.390625-6.710937-33.351563-12.457032c-3.203124-1.195312-5.75-3.707031-6.988281-6.898437-1.238281-3.1875-1.054687-6.757813.5-9.804687l22.507813-44.0625c.683594-1.335938 2.058594-2.179688 3.5625-2.179688h11.703125c1.425781 0 2.746093.761719 3.460937 2l63.828125 110.339844c.355469.609375.539063 1.300781.539063 2.003906v62.8125c0 1.640625-1 3.113281-2.523438 3.71875-.476562.191406-.976562.28125-1.472656.28125zm-73.085938-173.15625-21.394531 41.882812c-.527343 1.03125-.585937 2.191407-.167969 3.269532.417969 1.078125 1.246094 1.894531 2.328126 2.296875l37.472656 13.996093c2.234375.835938 3.71875 2.828126 3.886718 5.207032.164063 2.375-1.035156 4.554687-3.128906 5.691406l-16.253906 8.804688c-1.101562.597656-1.84375 1.644531-2.046875 2.878906-.199219 1.234375.175781 2.464844 1.035156 3.378906l67.355469 71.652344v-51.640625l-62.136719-107.417969zm0 0"/><path d="m242.871094 181.53125c-.496094 0-.992188-.089844-1.472656-.28125-1.523438-.605469-2.523438-2.078125-2.523438-3.71875v-62.8125c0-.703125.183594-1.394531.535156-2l63.832032-110.34375c.714843-1.234375 2.035156-1.996094 3.460937-1.996094h11.703125c1.5 0 2.878906.839844 3.5625 2.179688l22.511719 44.0625c1.554687 3.042968 1.738281 6.617187.5 9.800781-1.238281 3.1875-3.785157 5.703125-6.988281 6.898437l-33.351563 12.457032 12.390625 6.710937c3.296875 1.789063 5.53125 4.933594 6.128906 8.640625.601563 3.703125-.53125 7.394532-3.101562 10.128906l-74.269532 79.011719c-.769531.820313-1.832031 1.261719-2.917968 1.261719zm4.003906-65.738281v51.640625l67.355469-71.65625c.855469-.910156 1.234375-2.140625 1.035156-3.375-.203125-1.234375-.945313-2.285156-2.046875-2.882813l-16.253906-8.800781c-2.09375-1.136719-3.292969-3.316406-3.128906-5.691406.164062-2.378906 1.652343-4.375 3.886718-5.207032l37.472656-13.996093c1.082032-.402344 1.910157-1.21875 2.328126-2.296875.421874-1.078125.359374-2.238282-.164063-3.269532l-21.398437-41.878906h-6.945313zm0 0"/></g><path d="m231.121094 200.039062c0 4.671876-3.789063 8.457032-8.457032 8.457032-4.671874 0-8.457031-3.785156-8.457031-8.457032 0-4.667968 3.785157-8.457031 8.457031-8.457031 4.667969 0 8.457032 3.789063 8.457032 8.457031zm0 0" fill="#4671c6"/><path d="m231.121094 260.039062c0 4.671876-3.789063 8.457032-8.457032 8.457032-4.671874 0-8.457031-3.785156-8.457031-8.457032 0-4.667968 3.785157-8.457031 8.457031-8.457031 4.667969 0 8.457032 3.789063 8.457032 8.457031zm0 0" fill="#4671c6"/><path d="m231.121094 320.039062c0 4.671876-3.789063 8.457032-8.457032 8.457032-4.671874 0-8.457031-3.785156-8.457031-8.457032 0-4.667968 3.785157-8.457031 8.457031-8.457031 4.667969 0 8.457032 3.789063 8.457032 8.457031zm0 0" fill="#4671c6"/></svg>